<?xml version="1.0" encoding="iso-8859-1"?>
<!-- Uploaded to: SVG Repo, www.svgrepo.com, Generator: SVG Repo Mixer Tools -->
<svg version="1.1" id="Layer_1" xmlns="http://www.w3.org/2000/svg" xmlns:xlink="http://www.w3.org/1999/xlink" 
	 viewBox="0 0 390.206 390.206" xml:space="preserve">
<path style="fill:#FFC10D;" d="M103.07,157.737v80.743H21.744v-80.743c0-22.238,18.941-40.081,40.663-40.081
	C84.063,117.592,103.07,135.499,103.07,157.737z"/>
<g>
	<path style="fill:#FFFFFF;" d="M83.029,42.279c0-11.378-9.244-20.622-20.622-20.622s-20.622,9.244-20.622,20.622
		s9.244,20.622,20.622,20.622S83.029,53.657,83.029,42.279z"/>
	<rect x="36.419" y="260.137" style="fill:#FFFFFF;" width="52.558" height="108.412"/>
	<path style="fill:#FFFFFF;" d="M316.08,42.279c0-11.378-9.244-20.622-20.622-20.622s-20.622,9.244-20.622,20.622
		s9.244,20.622,20.622,20.622S316.08,53.657,316.08,42.279z"/>
</g>
<path style="fill:#56ACE0;" d="M335.538,152.307c0-0.517,0-0.517,0-1.099c-3.232-19.523-19.523-33.616-39.564-33.616h-1.616
	c-19.523,0-36.331,14.093-39.564,33.616c0,0.517,0,0.517,0,1.099l-9.762,40.081l-19.523,67.749h139.83l-19.523-67.749
	L335.538,152.307z"/>
<rect x="268.888" y="281.794" style="fill:#FFFFFF;" width="52.558" height="86.691"/>
<g>
	<path style="fill:#194F82;" d="M62.407,84.558c23.273,0,42.279-18.941,42.279-42.279S85.744,0,62.407,0
		S20.128,18.941,20.128,42.279S39.134,84.558,62.407,84.558z M62.407,21.657c11.378,0,20.622,9.244,20.622,20.622
		s-9.244,20.622-20.622,20.622s-20.622-9.244-20.622-20.622S51.029,21.657,62.407,21.657z"/>
	<path style="fill:#194F82;" d="M62.407,95.935c-34.133,0-62.319,27.669-62.319,61.802v91.022c0,5.947,4.848,10.861,10.861,10.861
		h3.814v119.208c0,5.947,4.848,10.861,10.861,10.861h74.279c5.947,0,10.861-4.848,10.861-10.861V259.62h3.814
		c5.947,0,10.861-4.848,10.861-10.861v-91.022C125.308,123.539,96.54,95.935,62.407,95.935z M88.977,368.549H73.268v-50.424
		c0-5.947-4.848-10.861-10.861-10.861s-10.861,4.848-10.861,10.861v50.424H36.419V260.137h52.558
		C88.977,260.137,88.977,368.549,88.977,368.549z M103.587,238.481H21.744v-80.743c0-22.238,18.941-40.081,40.663-40.081
		s40.663,17.907,40.663,40.081v80.743H103.587z"/>
	<path style="fill:#194F82;" d="M295.457,84.558c23.273,0,42.279-18.941,42.279-42.279S318.795,0,295.457,0
		c-23.337,0-42.279,18.941-42.279,42.279S272.12,84.558,295.457,84.558z M295.457,21.657c11.378,0,20.622,9.244,20.622,20.622
		s-9.244,20.622-20.622,20.622s-20.622-9.244-20.622-20.622S284.08,21.657,295.457,21.657z"/>
	<path style="fill:#194F82;" d="M389.195,266.085l-22.756-79.127l-9.762-39.564c-4.849-29.802-31.418-51.459-61.802-51.459
		c-30.384,0-56.889,21.657-61.802,51.459l-9.762,39.046l-23.273,81.325c-1.616,6.529,2.715,14.093,10.279,14.093h36.331v97.487
		c0,5.947,4.848,10.861,10.861,10.861h74.279c5.948,0,10.861-4.848,10.861-10.861v-97.552h36.331l0,0
		C388.678,281.794,391.91,273.131,389.195,266.085z M321.445,368.549h-15.192v-50.424c0-5.947-4.848-10.861-10.861-10.861
		s-10.861,4.848-10.861,10.861v50.424H269.34v-86.756h52.558v86.691h-0.453V368.549z M225.51,260.137l19.523-67.75
		c0,0,9.762-40.663,9.762-41.18c3.232-19.523,20.622-33.616,40.663-33.616s36.848,14.093,40.081,33.616
		c0,0.517,10.279,41.18,10.279,41.18l19.523,67.232H225.51V260.137z"/>
	<path style="fill:#194F82;" d="M164.29,0c-5.947,0-10.861,4.848-10.861,10.861v368.485c0,5.947,4.848,10.861,10.861,10.861
		s10.861-4.848,10.861-10.861V10.861C175.15,4.848,170.237,0,164.29,0z"/>
</g>
</svg>